<?xml version="1.0" encoding="utf-8"?>
<!-- Generator: Adobe Illustrator 13.0.0, SVG Export Plug-In . SVG Version: 6.00 Build 14948)  -->
<!DOCTYPE svg PUBLIC "-//W3C//DTD SVG 1.0//EN" "http://www.w3.org/TR/2001/REC-SVG-20010904/DTD/svg10.dtd">
<svg version="1.0"
	 id="Layer_1" xmlns:dc="http://purl.org/dc/elements/1.1/" xmlns:cc="http://creativecommons.org/ns#" xmlns:rdf="http://www.w3.org/1999/02/22-rdf-syntax-ns#" xmlns:svg="http://www.w3.org/2000/svg" xmlns:sodipodi="http://sodipodi.sourceforge.net/DTD/sodipodi-0.dtd" xmlns:inkscape="http://www.inkscape.org/namespaces/inkscape" inkscape:output_extension="org.inkscape.output.svg.inkscape" sodipodi:version="0.32" sodipodi:docname="No pub.svg" inkscape:version="0.46"
	 xmlns="http://www.w3.org/2000/svg" xmlns:xlink="http://www.w3.org/1999/xlink" x="0px" y="0px" width="500px" height="500px"
	 viewBox="0 0 500 500" enable-background="new 0 0 500 500" xml:space="preserve">
<defs>
	
	
		<inkscape:perspective  id="perspective54" inkscape:vp_z="500 : 250 : 1" inkscape:vp_y="0 : 1000 : 0" inkscape:vp_x="0 : 250 : 1" sodipodi:type="inkscape:persp3d" inkscape:persp3d-origin="250 : 166.66667 : 1">
		</inkscape:perspective>
	
		<inkscape:perspective  id="perspective2491" inkscape:vp_z="744.09448 : 526.18109 : 1" inkscape:vp_y="0 : 1000 : 0" inkscape:vp_x="0 : 526.18109 : 1" sodipodi:type="inkscape:persp3d" inkscape:persp3d-origin="372.04724 : 350.78739 : 1">
		</inkscape:perspective>
</defs>
<sodipodi:namedview  id="base" inkscape:cy="173.43403" inkscape:cx="250" inkscape:zoom="1.3067333" showgrid="false" pagecolor="#ffffff" bordercolor="#666666" borderopacity="1.0" objecttolerance="10.0" gridtolerance="10.0" guidetolerance="10.0" inkscape:current-layer="Layer_1" inkscape:window-y="-8" inkscape:window-x="-8" inkscape:pageopacity="0.0" inkscape:pageshadow="2" inkscape:window-width="1680" inkscape:window-height="1000">
	</sodipodi:namedview>
<circle id="circle3" fill="#FFFFFF" stroke="#000000" cx="249.5" cy="249.5" r="205"/>
<path id="path2497" sodipodi:nodetypes="cccccccccccccccccccsssssc" d="M307.188,128.5
	c-58.837,42.757-120.586,83.151-186.938,113.563c-12.729,5.414-12.67,5.267-5.75,11.469c33.161,29.168,58.497,65.065,82,102.094
	c70.473-34.586,131.75-84.896,191.813-134.75c10.113-10.145,10.391-10.937,5.469-16.188
	C368.46,175.813,338.789,150.394,307.188,128.5z M374,243.5c-55.594,42.186-112.22,86.347-175.813,116.219l-4.625,1.906
	c-33.012-21.727-61.166-49.727-91.438-74.938C89.48,296.115,167.834,364.842,187,379.5c32.418-13.877,63.099-30.094,93.387-48.197
	l108.832-76.334L374,243.5z M120.094,267.563c-4.842,2.146-13.541,6.965-15.469,8.563l-2.5,2.063l2.906,2.625
	c1.602,1.437,8.927,8.329,16.25,15.313c17.096,16.303,36.074,32.656,55.656,47.969c8.562,6.695,10.5,7.986,10.5,6.969
	c0-3.563-19.934-32.285-32.938-47.469c-2.352-2.746-4.974-5.896-5.844-7C142.776,289.137,121.105,267.114,120.094,267.563z"/>
<g id="g5">
	<g id="g7">
		<g id="g9">
			<g id="g11">
			</g>
			<g id="g15">
				<g id="g17">
				</g>
				<g id="g21">
				</g>
				<g id="g25">
				</g>
				<g id="g29">
				</g>
			</g>
		</g>
		<g id="g33">
			<rect id="rect35" x="273.441" y="89.786" fill="#FFFFFF" width="13.187" height="32.619"/>
		</g>
	</g>
	<g id="g37">
		
			<line id="line39" fill="none" stroke="#FFFFFF" stroke-width="55" stroke-miterlimit="10" x1="393.35" y1="392.509" x2="110.112" y2="109.275"/>
		<g id="g41">
			<path id="path43" fill="none" stroke="#FF0000" stroke-width="49" stroke-miterlimit="10" d="M250.029,446.658
				c-107.846,0-195.276-87.428-195.276-195.271c0-107.848,87.43-195.277,195.276-195.277c107.845,0,195.274,87.429,195.274,195.277
				C445.303,359.23,357.874,446.658,250.029,446.658z"/>
			<path id="path45" fill="none" stroke="#000000" stroke-width="49" stroke-miterlimit="10" d="M250.029,251.387"/>
		</g>
		
			<line id="line47" fill="none" stroke="#FF0000" stroke-width="51.12" stroke-miterlimit="10" x1="392.868" y1="392.191" x2="109.63" y2="108.957"/>
	</g>
</g>
</svg>
