<?xml version="1.0" encoding="utf-8" ?>
<svg xmlns="http://www.w3.org/2000/svg" xmlns:xlink="http://www.w3.org/1999/xlink" width="210" height="210">
	<defs>
		<clipPath id="clip_0">
			<rect x="-1009" y="-2488" width="1440" height="7285" clip-rule="evenodd"/>
		</clipPath>
	</defs>
	<g clip-path="url(#clip_0)">
		<path fill="rgb(222,76,60)" stroke="none" transform="translate(55.2118 61.8966)" d="M70.961 0L70.961 6.89655L59.9452 6.89655L59.9452 0L32.7482 0L32.7482 6.89655L21.7323 6.89655L21.7323 0L5 2.1075e-14Q4.87193 2.12364e-14 4.74472 0.00582875Q4.61751 0.0116575 4.49142 0.0233031Q4.36533 0.0349487 4.24061 0.0523874Q4.1159 0.0698261 3.99281 0.0930224Q3.86973 0.116219 3.74853 0.145125Q3.62732 0.174032 3.50825 0.208589Q3.38917 0.243147 3.27247 0.283285Q3.15577 0.323424 3.04167 0.369061Q2.92758 0.414698 2.81633 0.465741Q2.70508 0.516784 2.5969 0.573129Q2.48872 0.629473 2.38383 0.691005Q2.27894 0.752536 2.17755 0.819128Q2.07616 0.885721 1.97849 0.957238Q1.88081 1.02876 1.78704 1.10505Q1.69328 1.18135 1.60362 1.26227Q1.51395 1.34319 1.42857 1.42857Q1.34319 1.51395 1.26227 1.60362Q1.18135 1.69328 1.10505 1.78704Q1.02876 1.88081 0.957239 1.97849Q0.885721 2.07616 0.819128 2.17755Q0.752536 2.27894 0.691005 2.38383Q0.629473 2.48872 0.573129 2.5969Q0.516784 2.70508 0.465741 2.81633Q0.414698 2.92758 0.369061 3.04167Q0.323424 3.15577 0.283285 3.27247Q0.243147 3.38917 0.208589 3.50825Q0.174031 3.62732 0.145125 3.74853Q0.116219 3.86973 0.0930224 3.99281Q0.0698261 4.1159 0.0523874 4.24061Q0.0349487 4.36533 0.0233031 4.49142Q0.0116575 4.61751 0.00582875 4.74472Q0 4.87193 0 5L0 18.9655L92.6934 18.9655L92.6934 5Q92.6934 4.87193 92.6875 4.74472Q92.6817 4.61751 92.6701 4.49142Q92.6584 4.36533 92.641 4.24061Q92.6235 4.1159 92.6003 3.99281Q92.5771 3.86973 92.5482 3.74853Q92.5193 3.62732 92.4848 3.50825Q92.4502 3.38917 92.4101 3.27247Q92.37 3.15577 92.3243 3.04167Q92.2787 2.92758 92.2276 2.81633Q92.1766 2.70508 92.1202 2.5969Q92.0639 2.48872 92.0024 2.38383Q91.9408 2.27894 91.8742 2.17755Q91.8076 2.07616 91.7361 1.97849Q91.6646 1.88081 91.5883 1.78704Q91.512 1.69328 91.4311 1.60362Q91.3502 1.51395 91.2648 1.42857Q91.1794 1.34319 91.0898 1.26227Q91.0001 1.18135 90.9063 1.10505Q90.8126 1.02876 90.7149 0.957239Q90.6172 0.885721 90.5158 0.819128Q90.4144 0.752536 90.3095 0.691005Q90.2047 0.629473 90.0965 0.573129Q89.9883 0.516784 89.8771 0.465741Q89.7658 0.414698 89.6517 0.369061Q89.5376 0.323424 89.4209 0.283285Q89.3042 0.243147 89.1851 0.208589Q89.0661 0.174031 88.9449 0.145125Q88.8236 0.116219 88.7006 0.0930224Q88.5775 0.0698261 88.4528 0.0523874Q88.328 0.0349487 88.2019 0.0233031Q88.0759 0.0116575 87.9486 0.00582875Q87.8214 2.12364e-14 87.6934 2.1075e-14L70.961 0Z"/>
	</g>
	<defs>
		<clipPath id="clip_1">
			<rect x="-1009" y="-2488" width="1440" height="7285" clip-rule="evenodd"/>
		</clipPath>
	</defs>
	<g clip-path="url(#clip_1)">
		<path fill="none" stroke="rgb(45,77,104)" stroke-width="5" stroke-linecap="round" stroke-linejoin="round" transform="translate(55.2118 61.8966)" d="M70.961 0L70.961 6.89655L59.9452 6.89655L59.9452 0L32.7482 0L32.7482 6.89655L21.7323 6.89655L21.7323 0L5 2.1075e-14Q4.87193 2.12364e-14 4.74472 0.00582875Q4.61751 0.0116575 4.49142 0.0233031Q4.36533 0.0349487 4.24061 0.0523874Q4.1159 0.0698261 3.99281 0.0930224Q3.86973 0.116219 3.74853 0.145125Q3.62732 0.174032 3.50825 0.208589Q3.38917 0.243147 3.27247 0.283285Q3.15577 0.323424 3.04167 0.369061Q2.92758 0.414698 2.81633 0.465741Q2.70508 0.516784 2.5969 0.573129Q2.48872 0.629473 2.38383 0.691005Q2.27894 0.752536 2.17755 0.819128Q2.07616 0.885721 1.97849 0.957238Q1.88081 1.02876 1.78704 1.10505Q1.69328 1.18135 1.60362 1.26227Q1.51395 1.34319 1.42857 1.42857Q1.34319 1.51395 1.26227 1.60362Q1.18135 1.69328 1.10505 1.78704Q1.02876 1.88081 0.957239 1.97849Q0.885721 2.07616 0.819128 2.17755Q0.752536 2.27894 0.691005 2.38383Q0.629473 2.48872 0.573129 2.5969Q0.516784 2.70508 0.465741 2.81633Q0.414698 2.92758 0.369061 3.04167Q0.323424 3.15577 0.283285 3.27247Q0.243147 3.38917 0.208589 3.50825Q0.174031 3.62732 0.145125 3.74853Q0.116219 3.86973 0.0930224 3.99281Q0.0698261 4.1159 0.0523874 4.24061Q0.0349487 4.36533 0.0233031 4.49142Q0.0116575 4.61751 0.00582875 4.74472Q0 4.87193 0 5L0 18.9655L92.6934 18.9655L92.6934 5Q92.6934 4.87193 92.6875 4.74472Q92.6817 4.61751 92.6701 4.49142Q92.6584 4.36533 92.641 4.24061Q92.6235 4.1159 92.6003 3.99281Q92.5771 3.86973 92.5482 3.74853Q92.5193 3.62732 92.4848 3.50825Q92.4502 3.38917 92.4101 3.27247Q92.37 3.15577 92.3243 3.04167Q92.2787 2.92758 92.2276 2.81633Q92.1766 2.70508 92.1202 2.5969Q92.0639 2.48872 92.0024 2.38383Q91.9408 2.27894 91.8742 2.17755Q91.8076 2.07616 91.7361 1.97849Q91.6646 1.88081 91.5883 1.78704Q91.512 1.69328 91.4311 1.60362Q91.3502 1.51395 91.2648 1.42857Q91.1794 1.34319 91.0898 1.26227Q91.0001 1.18135 90.9063 1.10505Q90.8126 1.02876 90.7149 0.957239Q90.6172 0.885721 90.5158 0.819128Q90.4144 0.752536 90.3095 0.691005Q90.2047 0.629473 90.0965 0.573129Q89.9883 0.516784 89.8771 0.465741Q89.7658 0.414698 89.6517 0.369061Q89.5376 0.323424 89.4209 0.283285Q89.3042 0.243147 89.1851 0.208589Q89.0661 0.174031 88.9449 0.145125Q88.8236 0.116219 88.7006 0.0930224Q88.5775 0.0698261 88.4528 0.0523874Q88.328 0.0349487 88.2019 0.0233031Q88.0759 0.0116575 87.9486 0.00582875Q87.8214 2.12364e-14 87.6934 2.1075e-14L70.961 0Z"/>
	</g>
	<defs>
		<clipPath id="clip_2">
			<rect x="-1009" y="-2488" width="1440" height="7285" clip-rule="evenodd"/>
		</clipPath>
	</defs>
	<g clip-path="url(#clip_2)">
		<path fill="rgb(245,254,223)" stroke="none" transform="translate(55.2118 80.8621)" d="M13.7323 0L0 0L0 70.1379Q0 70.3429 0.0186425 70.5448Q0.037285 70.7467 0.0744179 70.9437Q0.111551 71.1407 0.166871 71.3313Q0.222192 71.5219 0.295249 71.7046Q0.368306 71.8872 0.458503 72.0604Q0.5487 72.2336 0.655303 72.3959Q0.761905 72.5582 0.884043 72.7083Q1.00618 72.8584 1.14286 72.9951Q1.27953 73.1318 1.42964 73.2539Q1.57974 73.376 1.74204 73.4826Q1.90434 73.5892 2.07752 73.6794Q2.2507 73.7696 2.43334 73.8427Q2.61598 73.9157 2.8066 73.9711Q2.99721 74.0264 3.19425 74.0635Q3.39129 74.1007 3.59314 74.1193Q3.79499 74.1379 4 74.1379L88.6934 74.1379Q88.8984 74.1379 89.1002 74.1193Q89.3021 74.1007 89.4991 74.0635Q89.6962 74.0264 89.8868 73.9711Q90.0774 73.9157 90.26 73.8427Q90.4427 73.7696 90.6159 73.6794Q90.789 73.5892 90.9513 73.4826Q91.1136 73.376 91.2637 73.2539Q91.4138 73.1318 91.5505 72.9951Q91.6872 72.8584 91.8093 72.7083Q91.9315 72.5582 92.0381 72.3959Q92.1447 72.2336 92.2349 72.0604Q92.3251 71.8872 92.3981 71.7046Q92.4712 71.5219 92.5265 71.3313Q92.5818 71.1407 92.6189 70.9437Q92.6561 70.7467 92.6747 70.5448Q92.6934 70.3429 92.6934 70.1379L92.6934 0L78.961 0L66.9452 0L25.7482 0L13.7323 0Z"/>
	</g>
	<defs>
		<clipPath id="clip_3">
			<rect x="-1009" y="-2488" width="1440" height="7285" clip-rule="evenodd"/>
		</clipPath>
	</defs>
	<g clip-path="url(#clip_3)">
		<path fill="none" stroke="rgb(45,77,104)" stroke-width="5" stroke-linecap="round" stroke-linejoin="round" transform="translate(55.2118 80.8621)" d="M13.7323 0L0 0L0 70.1379Q0 70.3429 0.0186425 70.5448Q0.037285 70.7467 0.0744179 70.9437Q0.111551 71.1407 0.166871 71.3313Q0.222192 71.5219 0.295249 71.7046Q0.368306 71.8872 0.458503 72.0604Q0.5487 72.2336 0.655303 72.3959Q0.761905 72.5582 0.884043 72.7083Q1.00618 72.8584 1.14286 72.9951Q1.27953 73.1318 1.42964 73.2539Q1.57974 73.376 1.74204 73.4826Q1.90434 73.5892 2.07752 73.6794Q2.2507 73.7696 2.43334 73.8427Q2.61598 73.9157 2.8066 73.9711Q2.99721 74.0264 3.19425 74.0635Q3.39129 74.1007 3.59314 74.1193Q3.79499 74.1379 4 74.1379L88.6934 74.1379Q88.8984 74.1379 89.1002 74.1193Q89.3021 74.1007 89.4991 74.0635Q89.6962 74.0264 89.8868 73.9711Q90.0774 73.9157 90.26 73.8427Q90.4427 73.7696 90.6159 73.6794Q90.789 73.5892 90.9513 73.4826Q91.1136 73.376 91.2637 73.2539Q91.4138 73.1318 91.5505 72.9951Q91.6872 72.8584 91.8093 72.7083Q91.9315 72.5582 92.0381 72.3959Q92.1447 72.2336 92.2349 72.0604Q92.3251 71.8872 92.3981 71.7046Q92.4712 71.5219 92.5265 71.3313Q92.5818 71.1407 92.6189 70.9437Q92.6561 70.7467 92.6747 70.5448Q92.6934 70.3429 92.6934 70.1379L92.6934 0L78.961 0L66.9452 0L25.7482 0L13.7323 0Z"/>
	</g>
	<defs>
		<clipPath id="clip_4">
			<rect x="-1009" y="-2488" width="1440" height="7285" clip-rule="evenodd"/>
		</clipPath>
	</defs>
	<g clip-path="url(#clip_4)">
		<path fill="rgb(45,77,104)" stroke="none" transform="translate(68.9442 109)" d="M0 0L65.2287 0L65.2287 33.931L0 33.931L0 0ZM3.43309 2.89655L3.43309 14.9655L15.4489 14.9655L15.4489 2.89655L3.43309 2.89655ZM18.882 14.9655L18.882 2.89655L30.8978 2.89655L30.8978 14.9655L18.882 14.9655ZM46.3467 14.9655L46.3467 2.89655L34.3309 2.89655L34.3309 14.9655L46.3467 14.9655ZM61.7956 2.89655L61.7956 14.9655L49.7798 14.9655L49.7798 2.89655L61.7956 2.89655ZM15.4489 18.4138L15.4489 30.4828L3.43309 30.4828L3.43309 18.4138L15.4489 18.4138ZM30.8978 30.4828L30.8978 18.4138L18.882 18.4138L18.882 30.4828L30.8978 30.4828ZM46.3467 18.4138L46.3467 30.4828L34.3309 30.4828L34.3309 18.4138L46.3467 18.4138ZM61.7956 30.4828L61.7956 18.4138L49.7798 18.4138L49.7798 30.4828L61.7956 30.4828Z" fill-rule="evenodd"/>
	</g>
	<defs>
		<clipPath id="clip_5">
			<rect x="-1009" y="-2488" width="1440" height="7285" clip-rule="evenodd"/>
		</clipPath>
	</defs>
	<g clip-path="url(#clip_5)">
		<path fill="rgb(207,207,207)" stroke="none" transform="translate(76.9442 55)" d="M7.07811e-14 0L11.0158 0L11.0158 13.7931L7.07811e-14 13.7931L7.07811e-14 0Z"/>
	</g>
	<defs>
		<clipPath id="clip_6">
			<rect x="-1009" y="-2488" width="1440" height="7285" clip-rule="evenodd"/>
		</clipPath>
	</defs>
	<g clip-path="url(#clip_6)">
		<path fill="none" stroke="rgb(45,77,104)" stroke-width="5" stroke-linecap="round" stroke-linejoin="round" transform="translate(76.9442 55)" d="M7.07811e-14 0L11.0158 0L11.0158 13.7931L7.07811e-14 13.7931L7.07811e-14 0Z"/>
	</g>
	<defs>
		<clipPath id="clip_7">
			<rect x="-1009" y="-2488" width="1440" height="7285" clip-rule="evenodd"/>
		</clipPath>
	</defs>
	<g clip-path="url(#clip_7)">
		<path fill="rgb(207,207,207)" stroke="none" transform="translate(115 54)" d="M5.67166e-13 0L11.0158 0L11.0158 13.7931L5.67166e-13 13.7931L5.67166e-13 0Z"/>
	</g>
	<defs>
		<clipPath id="clip_8">
			<rect x="-1009" y="-2488" width="1440" height="7285" clip-rule="evenodd"/>
		</clipPath>
	</defs>
	<g clip-path="url(#clip_8)">
		<path fill="none" stroke="rgb(45,77,104)" stroke-width="5" stroke-linecap="round" stroke-linejoin="round" transform="translate(115 54)" d="M5.67166e-13 0L11.0158 0L11.0158 13.7931L5.67166e-13 13.7931L5.67166e-13 0Z"/>
	</g>
	<defs>
		<clipPath id="clip_9">
			<rect x="-1009" y="-2488" width="1440" height="7285" clip-rule="evenodd"/>
		</clipPath>
	</defs>
	<g clip-path="url(#clip_9)">
		<path fill="rgb(131,239,96)" stroke="none" transform="translate(87.8261 111.897)" d="M0 0L12.0158 0L12.0158 12.069L0 12.069L0 0Z"/>
	</g>
	<defs>
		<clipPath id="clip_10">
			<rect x="-1009" y="-2488" width="1440" height="7285" clip-rule="evenodd"/>
		</clipPath>
	</defs>
	<g clip-path="url(#clip_10)">
		<path fill="rgb(50,170,119)" stroke="none" transform="translate(94.7823 96.8958)" d="M13.872 1.26301C13.872 1.26301 3.43564 -4.34888 0 8.08602C0 8.08602 11.7041 13.1717 13.872 1.26301Z"/>
	</g>
	<defs>
		<clipPath id="clip_11">
			<rect x="-1009" y="-2488" width="1440" height="7285" clip-rule="evenodd"/>
		</clipPath>
	</defs>
	<g clip-path="url(#clip_11)">
		<path fill="rgb(50,170,119)" stroke="none" transform="translate(81.8351 91.3966)" d="M0.308429 0.104518C0.308429 0.104518 13.3453 -2.01292 11.9124 12.8134C11.9124 12.8134 -2.2466 13.852 0.308429 0.104518Z"/>
	</g>
	<defs>
		<clipPath id="clip_12">
			<rect x="-1009" y="-2488" width="1440" height="7285" clip-rule="evenodd"/>
		</clipPath>
	</defs>
	<g clip-path="url(#clip_12)">
		<path fill="rgb(131,239,96)" stroke="none" transform="translate(94.7823 96.8958)" d="M3.96454 8.08735C5.48763 2.7895 8.33249 0.768176 11.0976 0.191386C7.59766 -0.442426 2.29587 0.100006 0 8.08735C0 8.08735 3.76166 9.65616 7.4908 9.00846C5.45588 8.70873 3.96454 8.08735 3.96454 8.08735Z"/>
	</g>
	<defs>
		<clipPath id="clip_13">
			<rect x="-1009" y="-2488" width="1440" height="7285" clip-rule="evenodd"/>
		</clipPath>
	</defs>
	<g clip-path="url(#clip_13)">
		<path fill="rgb(131,239,96)" stroke="none" transform="translate(81.8351 91.3966)" d="M3.92452 0.140029C1.90659 -0.152378 0.310765 0.103921 0.310765 0.103921C-2.26362 13.8527 12.0026 12.8134 12.0026 12.8134C12.0104 12.732 12.0153 12.6541 12.0224 12.5734C7.99149 11.8654 2.23042 9.279 3.92452 0.140029Z"/>
	</g>
	<defs>
		<clipPath id="clip_14">
			<rect x="-1009" y="-2488" width="1440" height="7285" clip-rule="evenodd"/>
		</clipPath>
	</defs>
	<g clip-path="url(#clip_14)">
		<path fill="rgb(45,77,104)" stroke="none" transform="translate(92.5765 95.0555)" d="M15.1417 0.735271C15.9562 1.00836 16.5793 1.28731 16.9599 1.49197L18.1355 2.12412L17.8981 3.42859C16.8972 8.92666 13.886 11.9448 9.62705 12.6709C7.55159 13.0248 5.39957 12.8047 3.31508 12.2322C2.48667 12.0047 1.84952 11.7728 1.46316 11.6049L0 10.9691L0.421923 9.44204C1.82531 4.36265 4.50716 1.39096 8.09569 0.381317C10.4273 -0.27468 12.8375 -0.037355 15.1417 0.735271ZM4.52997 8.75972C6.05991 9.15444 7.60934 9.295 8.99987 9.05792C11.3666 8.65439 13.0532 7.21433 13.9275 4.19841C12.2797 3.65047 10.5982 3.48818 9.10595 3.90804C7.18322 4.449 5.61882 5.94037 4.52997 8.75972Z" fill-rule="evenodd"/>
	</g>
	<defs>
		<clipPath id="clip_15">
			<rect x="-1009" y="-2488" width="1440" height="7285" clip-rule="evenodd"/>
		</clipPath>
	</defs>
	<g clip-path="url(#clip_15)">
		<path fill="rgb(45,77,104)" stroke="none" transform="translate(79.9835 89.5579)" d="M0.576846 0.342889L0.341127 1.61119C-1.02205 8.94579 1.79039 13.5333 7.16732 15.5006C9.43951 16.3319 11.7484 16.5683 13.6635 16.4927C13.7698 16.4885 13.8495 16.4839 13.9006 16.4802L15.4565 16.366L15.6052 14.8269C16.3378 7.24764 13.6213 2.65327 8.66116 0.827317C6.54778 0.0493262 4.3721 -0.112502 2.43411 0.0657738C2.17664 0.0894581 1.98264 0.114561 1.86099 0.134319L0.576846 0.342889ZM11.5916 12.7579C10.4991 12.646 9.43029 12.4206 8.44845 12.0614C5.04562 10.8164 3.27475 8.30442 3.7728 3.6679C4.94549 3.66161 6.20097 3.83249 7.37307 4.26397C10.3876 5.37371 12.1329 7.93202 12.0255 12.7964C11.8847 12.7858 11.7399 12.773 11.5916 12.7579Z" fill-rule="evenodd"/>
	</g>
	<defs>
		<clipPath id="clip_16">
			<rect x="-1009" y="-2488" width="1440" height="7285" clip-rule="evenodd"/>
		</clipPath>
	</defs>
	<g clip-path="url(#clip_16)">
		<path fill="rgb(45,77,104)" stroke="none" transform="translate(92.008 102.137)" d="M0 1.83304L0 13.1874C0 14.1997 0.828094 15.0204 1.8496 15.0204C2.87111 15.0204 3.6992 14.1997 3.6992 13.1874L3.6992 1.83304C3.6992 0.820682 2.87111 0 1.8496 0C0.828094 0 0 0.820682 0 1.83304Z"/>
	</g>

</svg>